<?xml version="1.0" standalone="no"?>
<!DOCTYPE svg PUBLIC "-//W3C//DTD SVG 20010904//EN"
 "http://www.w3.org/TR/2001/REC-SVG-20010904/DTD/svg10.dtd">
<svg version="1.0" xmlns="http://www.w3.org/2000/svg"
 width="500.000000pt" height="500.000000pt" viewBox="0 0 500.000000 500.000000"
 preserveAspectRatio="xMidYMid meet">

<g transform="translate(0.000000,500.000000) scale(0.100000,-0.100000)"
fill="#000000" stroke="none">
<path d="M2030 3100 l0 -70 100 0 100 0 0 70 0 70 -100 0 -100 0 0 -70z"/>
<path d="M1740 3025 l0 -95 -30 0 -30 0 0 -62 0 -63 -21 42 c-43 87 -111 123
-231 123 -96 0 -145 -18 -195 -71 -58 -61 -63 -93 -63 -373 0 -147 5 -267 11
-290 16 -58 81 -123 142 -141 109 -32 235 -9 298 54 61 61 69 106 69 389 l0
243 23 -3 22 -3 5 -310 c4 -271 7 -314 22 -337 24 -36 78 -52 155 -45 l63 6 0
-43 c0 -52 7 -56 89 -56 69 0 117 27 143 80 16 32 18 76 18 468 l0 432 -100 0
-100 0 0 -399 c0 -220 -3 -406 -6 -415 -12 -32 -24 -15 -24 33 0 47 -2 50 -27
53 l-28 3 -3 268 -2 267 30 0 30 0 0 75 0 75 -30 0 -30 0 0 95 0 95 -100 0
-100 0 0 -95z m-280 -225 c19 -19 20 -33 20 -268 0 -208 -2 -251 -16 -270 -18
-26 -41 -28 -66 -5 -17 15 -18 37 -18 274 0 255 0 258 22 273 29 20 34 20 58
-4z"/>
<path d="M4150 2605 l0 -515 105 0 105 0 0 515 0 515 -105 0 -105 0 0 -515z"/>
<path d="M640 2530 l0 -440 105 0 105 0 0 345 c0 332 1 346 20 365 11 11 25
20 30 20 6 0 19 -9 30 -20 19 -19 20 -33 20 -365 l0 -345 100 0 100 0 0 380
c0 359 -1 383 -20 419 -32 64 -62 81 -139 81 -60 0 -70 -3 -93 -27 -14 -16
-30 -37 -36 -48 -10 -17 -11 -13 -12 28 l0 47 -105 0 -105 0 0 -440z"/>
<path d="M2252 2588 c3 -360 4 -385 23 -422 26 -52 62 -77 118 -83 65 -8 115
12 140 56 l22 36 3 -42 3 -43 105 0 104 0 0 440 0 440 -105 0 -105 0 0 -334
c0 -193 -4 -346 -10 -360 -7 -20 -17 -26 -38 -26 -15 0 -33 5 -40 12 -9 9 -12
103 -12 360 l0 348 -105 0 -106 0 3 -382z"/>
<path d="M2790 2530 l0 -440 100 0 100 0 0 339 c0 327 1 339 21 365 24 31 54
34 69 7 6 -13 10 -146 10 -365 l0 -346 105 0 105 0 0 343 c0 294 2 346 16 365
18 27 45 28 67 4 15 -17 17 -57 17 -365 l0 -347 105 0 105 0 0 358 c0 407 -4
437 -65 491 -33 29 -41 31 -112 31 -75 0 -78 -1 -114 -36 l-36 -35 -35 35
c-34 34 -40 36 -102 36 -80 0 -117 -17 -139 -62 l-17 -33 0 48 0 47 -100 0
-100 0 0 -440z"/>
<path d="M3760 2959 c-44 -18 -90 -59 -113 -102 -21 -41 -22 -51 -22 -312 0
-304 7 -344 69 -404 59 -57 179 -77 283 -46 107 32 145 91 151 238 l4 97 -101
0 -101 0 0 -78 c0 -82 -14 -112 -53 -112 -35 0 -47 39 -47 157 l0 113 150 0
150 0 0 150 c0 160 -9 201 -53 248 -45 48 -88 62 -194 61 -54 0 -109 -5 -123
-10z m154 -161 c11 -16 16 -46 16 -105 l0 -83 -50 0 -50 0 0 87 c0 66 4 91 17
105 22 24 49 23 67 -4z"/>
<path d="M4426 2229 c-17 -19 -26 -43 -26 -64 0 -21 9 -45 26 -64 22 -27 32
-31 74 -31 42 0 52 4 74 31 17 19 26 43 26 64 0 21 -9 45 -26 64 -22 27 -32
31 -74 31 -42 0 -52 -4 -74 -31z"/>
<path d="M1971 1793 c1 -27 3 -40 6 -31 2 9 16 18 31 20 28 3 42 32 25 49 -6
6 -9 1 -9 -13 1 -17 -5 -24 -21 -26 -17 -3 -23 2 -23 17 0 11 8 22 18 24 13 4
11 5 -5 6 -21 1 -23 -3 -22 -46z"/>
<path d="M2060 1795 c0 -25 5 -45 10 -45 6 0 10 9 10 20 0 30 47 28 53 -2 2
-13 4 0 4 27 0 28 -2 40 -4 28 -6 -31 -53 -33 -53 -3 0 11 -4 20 -10 20 -5 0
-10 -20 -10 -45z"/>
<path d="M2170 1819 c-9 -16 -8 -26 5 -45 27 -41 85 -27 85 21 0 29 -19 45
-52 45 -17 0 -31 -7 -38 -21z m75 -10 c5 -13 1 -27 -8 -36 -21 -21 -57 -8 -57
21 0 12 3 26 7 29 15 15 52 6 58 -14z"/>
<path d="M2283 1833 c12 -3 17 -15 17 -44 0 -21 5 -39 10 -39 6 0 10 18 10 39
0 29 5 41 18 44 9 3 -3 5 -28 5 -25 0 -37 -2 -27 -5z"/>
<path d="M2360 1819 c-9 -16 -8 -26 5 -45 27 -41 85 -27 85 21 0 29 -19 45
-52 45 -17 0 -31 -7 -38 -21z m75 -10 c5 -13 1 -27 -8 -36 -21 -21 -57 -8 -57
21 0 12 3 26 7 29 15 15 52 6 58 -14z"/>
<path d="M2482 1828 c-7 -7 -12 -22 -12 -34 0 -48 73 -62 77 -14 l3 25 -10
-23 c-17 -40 -72 -8 -56 33 4 13 14 16 36 13 17 -3 30 -1 30 4 0 12 -54 10
-68 -4z"/>
<path d="M2581 1793 c1 -26 3 -40 6 -30 5 21 21 22 42 3 14 -13 16 -10 16 27
0 40 -2 42 -32 45 l-33 3 1 -48z m54 17 c0 -8 -10 -16 -22 -18 -18 -3 -23 2
-23 18 0 16 5 21 23 18 12 -2 22 -10 22 -18z"/>
<path d="M2681 1798 c-10 -24 -16 -45 -13 -48 2 -3 7 1 9 8 5 14 63 17 63 2 0
-5 4 -10 10 -10 5 0 0 20 -12 45 -12 25 -26 45 -30 45 -5 0 -17 -19 -27 -42z
m39 2 c0 -11 -7 -20 -15 -20 -17 0 -18 2 -9 24 9 23 24 20 24 -4z"/>
<path d="M2770 1793 c1 -38 3 -44 11 -30 5 9 18 17 28 17 10 0 24 7 31 15 18
21 -4 45 -41 45 -28 0 -29 -2 -29 -47z m60 17 c0 -15 -7 -20 -25 -20 -18 0
-25 5 -25 20 0 15 7 20 25 20 18 0 25 -5 25 -20z"/>
<path d="M2873 1795 c0 -27 2 -40 4 -27 6 30 53 32 53 2 0 -11 5 -20 10 -20 6
0 10 20 10 45 0 25 -4 45 -10 45 -5 0 -10 -9 -10 -20 0 -30 -47 -28 -53 3 -2
12 -4 0 -4 -28z"/>
<path d="M2984 1797 l21 -43 8 28 c4 15 12 30 17 33 6 3 10 12 10 18 0 7 -9 1
-19 -12 l-19 -24 -13 21 c-24 38 -27 24 -5 -21z"/>
</g>
</svg>
