<?xml version="1.0" standalone="no"?>
<!DOCTYPE svg PUBLIC "-//W3C//DTD SVG 20010904//EN"
 "http://www.w3.org/TR/2001/REC-SVG-20010904/DTD/svg10.dtd">
<svg version="1.0" xmlns="http://www.w3.org/2000/svg"
 width="500.000000pt" height="500.000000pt" viewBox="0 0 500.000000 500.000000"
 preserveAspectRatio="xMidYMid meet">

<g transform="translate(0.000000,500.000000) scale(0.100000,-0.100000)"
fill="#000000" stroke="none">
<path d="M2720 3540 l0 -120 170 0 170 0 0 120 0 120 -170 0 -170 0 0 -120z"/>
<path d="M2275 3314 c-47 -24 -63 -43 -95 -108 l-29 -61 -1 88 0 87 -170 0
-170 0 0 -720 0 -720 170 0 170 0 0 538 c0 347 4 550 11 575 23 84 92 103 136
38 l23 -34 0 -558 0 -559 165 0 165 0 0 -75 0 -74 43 -12 c64 -17 176 -7 233
22 59 29 107 96 123 169 7 34 11 279 11 730 l0 680 -170 0 -170 0 0 -663 c0
-703 0 -704 -46 -695 -18 3 -19 20 -24 588 l-5 585 -28 57 c-32 65 -80 110
-136 127 -56 16 -170 14 -206 -5z"/>
<path d="M3254 1996 c-30 -30 -34 -40 -34 -89 0 -51 3 -57 40 -91 34 -30 47
-36 86 -36 40 0 51 5 85 39 35 35 39 44 39 91 0 46 -4 56 -34 86 -31 31 -40
34 -91 34 -51 0 -60 -3 -91 -34z"/>
</g>
</svg>
