<?xml version="1.0" standalone="no"?>
<!DOCTYPE svg PUBLIC "-//W3C//DTD SVG 20010904//EN"
 "http://www.w3.org/TR/2001/REC-SVG-20010904/DTD/svg10.dtd">
<svg version="1.0" xmlns="http://www.w3.org/2000/svg"
 width="500.000000pt" height="500.000000pt" viewBox="0 0 500.000000 500.000000"
 preserveAspectRatio="xMidYMid meet">

<g transform="translate(0.000000,500.000000) scale(0.100000,-0.100000)"
fill="#000000" stroke="none">
<path d="M2030 3030 l0 -70 100 0 100 0 0 70 0 70 -100 0 -100 0 0 -70z"/>
<path d="M1740 2955 l0 -95 -30 0 -30 0 0 -62 0 -63 -21 42 c-43 87 -111 123
-231 123 -96 0 -145 -18 -195 -71 -58 -61 -63 -93 -63 -373 0 -147 5 -267 11
-290 16 -58 81 -123 142 -141 109 -32 235 -9 298 54 61 61 69 106 69 389 l0
243 23 -3 22 -3 5 -310 c4 -271 7 -314 22 -337 24 -36 78 -52 155 -45 l63 6 0
-43 c0 -52 7 -56 89 -56 69 0 117 27 143 80 16 32 18 76 18 468 l0 432 -100 0
-100 0 0 -399 c0 -220 -3 -406 -6 -415 -12 -32 -24 -15 -24 33 0 47 -2 50 -27
53 l-28 3 -3 268 -2 267 30 0 30 0 0 75 0 75 -30 0 -30 0 0 95 0 95 -100 0
-100 0 0 -95z m-280 -225 c19 -19 20 -33 20 -268 0 -208 -2 -251 -16 -270 -18
-26 -41 -28 -66 -5 -17 15 -18 37 -18 274 0 255 0 258 22 273 29 20 34 20 58
-4z"/>
<path d="M4150 2535 l0 -515 105 0 105 0 0 515 0 515 -105 0 -105 0 0 -515z"/>
<path d="M640 2460 l0 -440 105 0 105 0 0 345 c0 332 1 346 20 365 11 11 25
20 30 20 6 0 19 -9 30 -20 19 -19 20 -33 20 -365 l0 -345 100 0 100 0 0 380
c0 359 -1 383 -20 419 -32 64 -62 81 -139 81 -60 0 -70 -3 -93 -27 -14 -16
-30 -37 -36 -48 -10 -17 -11 -13 -12 28 l0 47 -105 0 -105 0 0 -440z"/>
<path d="M2252 2518 c3 -360 4 -385 23 -422 26 -52 62 -77 118 -83 65 -8 115
12 140 56 l22 36 3 -42 3 -43 105 0 104 0 0 440 0 440 -105 0 -105 0 0 -334
c0 -193 -4 -346 -10 -360 -7 -20 -17 -26 -38 -26 -15 0 -33 5 -40 12 -9 9 -12
103 -12 360 l0 348 -105 0 -106 0 3 -382z"/>
<path d="M2790 2460 l0 -440 100 0 100 0 0 339 c0 327 1 339 21 365 24 31 54
34 69 7 6 -13 10 -146 10 -365 l0 -346 105 0 105 0 0 343 c0 294 2 346 16 365
18 27 45 28 67 4 15 -17 17 -57 17 -365 l0 -347 105 0 105 0 0 358 c0 407 -4
437 -65 491 -33 29 -41 31 -110 31 -72 0 -77 -2 -114 -35 l-39 -35 -35 35
c-33 33 -39 35 -101 35 -80 0 -117 -17 -139 -62 l-17 -33 0 48 0 47 -100 0
-100 0 0 -440z"/>
<path d="M3760 2889 c-44 -18 -90 -59 -113 -102 -21 -41 -22 -51 -22 -312 0
-304 7 -344 69 -404 59 -57 179 -77 283 -46 107 32 145 91 151 238 l4 97 -101
0 -101 0 0 -78 c0 -82 -14 -112 -53 -112 -35 0 -47 39 -47 157 l0 113 150 0
150 0 0 150 c0 160 -9 201 -53 248 -45 48 -88 62 -194 61 -54 0 -109 -5 -123
-10z m154 -161 c11 -16 16 -46 16 -105 l0 -83 -50 0 -50 0 0 87 c0 66 4 91 17
105 22 24 49 23 67 -4z"/>
<path d="M4448 2184 c-89 -48 -50 -184 52 -184 33 0 48 6 71 29 42 42 40 92
-5 137 -38 38 -73 43 -118 18z"/>
</g>
</svg>
