<?xml version="1.0" standalone="no"?>
<!DOCTYPE svg PUBLIC "-//W3C//DTD SVG 20010904//EN"
 "http://www.w3.org/TR/2001/REC-SVG-20010904/DTD/svg10.dtd">
<svg version="1.0" xmlns="http://www.w3.org/2000/svg"
 width="500.000000pt" height="500.000000pt" viewBox="0 0 500.000000 500.000000"
 preserveAspectRatio="xMidYMid meet">

<g transform="translate(0.000000,500.000000) scale(0.100000,-0.100000)"
fill="#000000" stroke="none">
<path d="M2720 3540 l0 -120 170 0 170 0 0 120 0 120 -170 0 -170 0 0 -120z"/>
<path d="M1698 3636 c-60 -16 -130 -74 -157 -129 -21 -42 -21 -54 -19 -528 l3
-484 5 480 c5 468 6 481 27 520 28 52 68 89 123 114 43 20 64 21 528 21 314 0
482 3 482 10 0 16 -932 12 -992 -4z"/>
<path d="M2264 3311 c-40 -24 -80 -76 -98 -127 l-15 -39 0 88 -1 87 -170 0
-170 0 0 -720 0 -720 170 0 169 0 3 564 c3 556 3 565 24 593 30 40 88 40 118
0 21 -28 21 -37 24 -593 l2 -564 165 0 165 0 0 -75 0 -74 43 -12 c64 -17 176
-7 233 22 59 29 107 96 123 169 7 34 11 279 11 730 l0 680 -170 0 -170 0 0
-668 c0 -506 -3 -671 -12 -680 -7 -7 -22 -12 -35 -12 l-22 0 -3 584 -3 583
-35 69 c-28 55 -45 74 -84 99 -44 27 -59 30 -140 33 -76 2 -96 0 -122 -17z"/>
<path d="M3600 2005 c-4 -290 -7 -335 -23 -370 -25 -55 -63 -93 -122 -121
l-50 -24 -412 0 c-269 0 -413 -3 -413 -10 0 -7 143 -10 408 -10 454 0 465 1
539 65 23 19 50 56 62 84 21 49 21 61 19 383 l-3 333 -5 -330z"/>
<path d="M3276 1861 c-40 -27 -55 -57 -56 -114 0 -43 5 -54 34 -83 31 -31 40
-34 91 -34 51 0 60 3 91 34 30 30 34 40 34 86 0 47 -4 56 -39 91 -33 33 -45
39 -82 39 -27 0 -56 -8 -73 -19z"/>
</g>
</svg>
